<svg width="758" height="253" viewBox="0 0 758 253" fill="none" xmlns="http://www.w3.org/2000/svg">
<path fill-rule="evenodd" clip-rule="evenodd" d="M496.132 125.196C507.177 125.196 516.132 116.242 516.132 105.196C516.132 94.1503 507.177 85.196 496.132 85.196C485.086 85.196 476.132 94.1503 476.132 105.196C476.132 116.242 485.086 125.196 496.132 125.196Z" fill="#FF7E00"/>
<path fill-rule="evenodd" clip-rule="evenodd" d="M637.132 162.196C642.655 162.196 647.132 157.719 647.132 152.196C647.132 146.673 642.655 142.196 637.132 142.196C631.609 142.196 627.132 146.673 627.132 152.196C627.132 157.719 631.609 162.196 637.132 162.196Z" fill="#F7C348"/>
<path fill-rule="evenodd" clip-rule="evenodd" d="M361.314 177.196C372.359 177.196 381.314 168.242 381.314 157.196C381.314 146.15 372.359 137.196 361.314 137.196C350.268 137.196 341.314 146.15 341.314 157.196C341.314 168.242 350.268 177.196 361.314 177.196Z" fill="#FEFF65"/>
<path fill-rule="evenodd" clip-rule="evenodd" d="M68.1317 218.196C73.6546 218.196 78.1317 213.719 78.1317 208.196C78.1317 202.673 73.6546 198.196 68.1317 198.196C62.6089 198.196 58.1317 202.673 58.1317 208.196C58.1317 213.719 62.6089 218.196 68.1317 218.196Z" fill="#FFBDCA"/>
<path fill-rule="evenodd" clip-rule="evenodd" d="M226.132 148.196C229.445 148.196 232.132 145.51 232.132 142.196C232.132 138.882 229.445 136.196 226.132 136.196C222.818 136.196 220.132 138.882 220.132 142.196C220.132 145.51 222.818 148.196 226.132 148.196Z" fill="#FFE949"/>
<path fill-rule="evenodd" clip-rule="evenodd" d="M389.867 130.992C393.067 130.134 394.967 126.844 394.109 123.643C393.252 120.442 389.962 118.543 386.761 119.4C383.56 120.258 381.66 123.548 382.518 126.749C383.376 129.95 386.666 131.849 389.867 130.992Z" fill="#49FFF4"/>
<path fill-rule="evenodd" clip-rule="evenodd" d="M527.132 155.196C530.445 155.196 533.132 152.51 533.132 149.196C533.132 145.882 530.445 143.196 527.132 143.196C523.818 143.196 521.132 145.882 521.132 149.196C521.132 152.51 523.818 155.196 527.132 155.196Z" fill="#FFE949"/>
<rect x="54.0312" y="128.154" width="20" height="48" transform="rotate(45 54.0312 128.154)" fill="#FCADFF"/>
<rect x="199.232" y="174.368" width="10" height="18" transform="rotate(-45 199.232 174.368)" fill="#9BFFDA"/>
<path fill-rule="evenodd" clip-rule="evenodd" d="M154.132 136.196C181.746 136.196 204.132 113.81 204.132 86.196C204.132 58.5817 181.746 36.196 154.132 36.196C126.517 36.196 104.132 58.5817 104.132 86.196C104.132 113.81 126.517 136.196 154.132 136.196Z" fill="#37DAFF"/>
<rect x="598.936" y="56.5685" width="80" height="144" transform="rotate(-45 598.936 56.5685)" fill="#FFE949"/>
<rect x="465.209" y="187.416" width="8" height="15" transform="rotate(15 465.209 187.416)" fill="#FFE949"/>
<rect x="316.391" y="109.416" width="8" height="15" transform="rotate(15 316.391 109.416)" fill="#E0B6FF"/>
<rect x="125.418" y="170.201" width="8" height="15" transform="rotate(30 125.418 170.201)" fill="#FFE949"/>
<rect width="8" height="15" transform="matrix(-0.707107 0.707107 0.707107 0.707107 593.657 209.564)" fill="#FF3C00"/>
<rect width="12" height="20" transform="matrix(-0.707107 0.707107 0.707107 0.707107 8.48523 105.736)" fill="#FFA746"/>
<rect width="16" height="30" transform="matrix(-0.5 0.866025 0.866025 0.5 581.141 99.7678)" fill="#49FFF4"/>
<rect x="686.462" y="233.964" width="10" height="20" transform="rotate(60 686.462 233.964)" fill="#49FFF4"/>
</svg>
